<mxfile host="app.diagrams.net" agent="Mozilla/5.0 (Windows NT 10.0; Win64; x64) AppleWebKit/537.36 (KHTML, like Gecko) Chrome/141.0.0.0 Safari/537.36" version="28.2.5">
  <diagram name="Page-1" id="NWWiBwSiMHT2Ur717pmt">
    <mxGraphModel dx="1426" dy="785" grid="0" gridSize="10" guides="1" tooltips="1" connect="1" arrows="1" fold="1" page="1" pageScale="1" pageWidth="850" pageHeight="1100" math="0" shadow="0">
      <root>
        <mxCell id="0" />
        <mxCell id="1" parent="0" />
        <mxCell id="EqE0YKUDqJqxegZ7C9gL-1" value="PRODUCTION DATA INFORMATION SYSTEM" style="rounded=1;whiteSpace=wrap;html=1;fillColor=#dae8fc;strokeColor=#6c8ebf;" parent="1" vertex="1">
          <mxGeometry x="355" y="570" width="120" height="160" as="geometry" />
        </mxCell>
        <mxCell id="EqE0YKUDqJqxegZ7C9gL-2" value="" style="endArrow=none;html=1;rounded=0;exitX=0;exitY=0.25;exitDx=0;exitDy=0;entryX=1;entryY=0.25;entryDx=0;entryDy=0;" parent="1" source="EqE0YKUDqJqxegZ7C9gL-1" target="EqE0YKUDqJqxegZ7C9gL-1" edge="1">
          <mxGeometry width="50" height="50" relative="1" as="geometry">
            <mxPoint x="390" y="640" as="sourcePoint" />
            <mxPoint x="440" y="590" as="targetPoint" />
          </mxGeometry>
        </mxCell>
        <mxCell id="EqE0YKUDqJqxegZ7C9gL-3" value="0" style="text;html=1;align=center;verticalAlign=middle;whiteSpace=wrap;rounded=0;" parent="1" vertex="1">
          <mxGeometry x="385" y="580" width="60" height="30" as="geometry" />
        </mxCell>
        <mxCell id="EqE0YKUDqJqxegZ7C9gL-4" value="FABRICATION &amp;amp; MACHINE SHOP DEPARTMENTS" style="shape=cube;whiteSpace=wrap;html=1;boundedLbl=1;backgroundOutline=1;darkOpacity=0.05;darkOpacity2=0.1;strokeWidth=1;fillColor=#dae8fc;strokeColor=#6c8ebf;" parent="1" vertex="1">
          <mxGeometry x="115" y="330" width="120" height="80" as="geometry" />
        </mxCell>
        <mxCell id="EqE0YKUDqJqxegZ7C9gL-5" value="QUALITY &amp;amp; SHIPPING DEPARTMENTS" style="shape=cube;whiteSpace=wrap;html=1;boundedLbl=1;backgroundOutline=1;darkOpacity=0.05;darkOpacity2=0.1;fillColor=#dae8fc;strokeColor=#6c8ebf;" parent="1" vertex="1">
          <mxGeometry x="595" y="320" width="120" height="80" as="geometry" />
        </mxCell>
        <mxCell id="EqE0YKUDqJqxegZ7C9gL-21" value="SELECT, INSERT, UPDATE &amp;amp; DELETE QUERIES&lt;div&gt;(CRUD REQUESTS)&lt;/div&gt;" style="text;html=1;align=center;verticalAlign=middle;whiteSpace=wrap;rounded=0;" parent="1" vertex="1">
          <mxGeometry x="185" y="600" width="120" height="30" as="geometry" />
        </mxCell>
        <mxCell id="EqE0YKUDqJqxegZ7C9gL-22" value="SELECT QUERIES&lt;div&gt;(READ REQUESTS)&lt;/div&gt;" style="text;html=1;align=center;verticalAlign=middle;whiteSpace=wrap;rounded=0;" parent="1" vertex="1">
          <mxGeometry x="540" y="610" width="120" height="30" as="geometry" />
        </mxCell>
        <mxCell id="EqE0YKUDqJqxegZ7C9gL-25" value="QUERY RESULTS&lt;div&gt;(READ ACKNOWLEDGEMENTS)&lt;/div&gt;" style="text;html=1;align=center;verticalAlign=middle;whiteSpace=wrap;rounded=0;" parent="1" vertex="1">
          <mxGeometry x="495" y="690" width="190" height="30" as="geometry" />
        </mxCell>
        <mxCell id="EqE0YKUDqJqxegZ7C9gL-27" value="QUERY RESULTS&lt;div&gt;(CRUD ACKNOWLEDGEMENTS)&lt;/div&gt;" style="text;html=1;align=center;verticalAlign=middle;whiteSpace=wrap;rounded=0;" parent="1" vertex="1">
          <mxGeometry x="160" y="690" width="190" height="30" as="geometry" />
        </mxCell>
        <mxCell id="EqE0YKUDqJqxegZ7C9gL-29" value="Team 2 Production Data Information System Context Diagram" style="text;html=1;align=center;verticalAlign=middle;whiteSpace=wrap;rounded=0;" parent="1" vertex="1">
          <mxGeometry x="115" y="140" width="280" height="30" as="geometry" />
        </mxCell>
        <mxCell id="47_pGREQ6rvNZp8R7Rz3-1" value="KICZAN FRONT OFFICE" style="shape=cube;whiteSpace=wrap;html=1;boundedLbl=1;backgroundOutline=1;darkOpacity=0.05;darkOpacity2=0.1;fillColor=#dae8fc;strokeColor=#6c8ebf;" vertex="1" parent="1">
          <mxGeometry x="350" y="200" width="120" height="80" as="geometry" />
        </mxCell>
        <mxCell id="47_pGREQ6rvNZp8R7Rz3-7" value="NEW WORK ORDERS" style="text;html=1;align=center;verticalAlign=middle;whiteSpace=wrap;rounded=0;" vertex="1" parent="1">
          <mxGeometry x="225" y="200" width="80" height="30" as="geometry" />
        </mxCell>
        <mxCell id="47_pGREQ6rvNZp8R7Rz3-9" value="" style="endArrow=classic;html=1;rounded=0;entryX=0;entryY=0;entryDx=50;entryDy=0;entryPerimeter=0;strokeWidth=2;exitX=0;exitY=0;exitDx=0;exitDy=30;exitPerimeter=0;" edge="1" parent="1" source="47_pGREQ6rvNZp8R7Rz3-1" target="EqE0YKUDqJqxegZ7C9gL-4">
          <mxGeometry width="50" height="50" relative="1" as="geometry">
            <mxPoint x="350" y="120" as="sourcePoint" />
            <mxPoint x="40.039999999999964" y="240" as="targetPoint" />
            <Array as="points">
              <mxPoint x="290" y="230" />
              <mxPoint x="165" y="230" />
            </Array>
          </mxGeometry>
        </mxCell>
        <mxCell id="47_pGREQ6rvNZp8R7Rz3-11" value="ACTIVE DIRECTORY" style="shape=cube;whiteSpace=wrap;html=1;boundedLbl=1;backgroundOutline=1;darkOpacity=0.05;darkOpacity2=0.1;fillColor=#dae8fc;strokeColor=#6c8ebf;" vertex="1" parent="1">
          <mxGeometry x="355" y="330" width="120" height="80" as="geometry" />
        </mxCell>
        <mxCell id="47_pGREQ6rvNZp8R7Rz3-12" value="" style="shape=partialRectangle;whiteSpace=wrap;html=1;bottom=0;right=0;fillColor=#dae8fc;strokeColor=#000000;" vertex="1" parent="1">
          <mxGeometry x="115" y="760" width="160" height="60" as="geometry" />
        </mxCell>
        <mxCell id="47_pGREQ6rvNZp8R7Rz3-13" value="" style="endArrow=none;html=1;rounded=0;exitX=0;exitY=1;exitDx=0;exitDy=0;entryX=1;entryY=1;entryDx=0;entryDy=0;" edge="1" parent="1" source="47_pGREQ6rvNZp8R7Rz3-12" target="47_pGREQ6rvNZp8R7Rz3-12">
          <mxGeometry width="50" height="50" relative="1" as="geometry">
            <mxPoint x="195" y="920" as="sourcePoint" />
            <mxPoint x="245" y="870" as="targetPoint" />
          </mxGeometry>
        </mxCell>
        <mxCell id="47_pGREQ6rvNZp8R7Rz3-14" value="" style="endArrow=none;html=1;rounded=0;entryX=0.25;entryY=0;entryDx=0;entryDy=0;" edge="1" parent="1" target="47_pGREQ6rvNZp8R7Rz3-12">
          <mxGeometry width="50" height="50" relative="1" as="geometry">
            <mxPoint x="155" y="820" as="sourcePoint" />
            <mxPoint x="245" y="870" as="targetPoint" />
          </mxGeometry>
        </mxCell>
        <mxCell id="47_pGREQ6rvNZp8R7Rz3-16" value="D1" style="text;html=1;align=center;verticalAlign=middle;whiteSpace=wrap;rounded=0;" vertex="1" parent="1">
          <mxGeometry x="125" y="775" width="20" height="30" as="geometry" />
        </mxCell>
        <mxCell id="47_pGREQ6rvNZp8R7Rz3-18" value="LEGACY DATA SOURCE" style="text;html=1;align=center;verticalAlign=middle;whiteSpace=wrap;rounded=0;" vertex="1" parent="1">
          <mxGeometry x="160" y="775" width="110" height="30" as="geometry" />
        </mxCell>
        <mxCell id="47_pGREQ6rvNZp8R7Rz3-19" value="BACKUP ARCHIVE" style="shape=cube;whiteSpace=wrap;html=1;boundedLbl=1;backgroundOutline=1;darkOpacity=0.05;darkOpacity2=0.1;fillColor=#dae8fc;strokeColor=#6c8ebf;" vertex="1" parent="1">
          <mxGeometry x="590" y="760" width="120" height="80" as="geometry" />
        </mxCell>
        <mxCell id="47_pGREQ6rvNZp8R7Rz3-22" value="DEPARTMENT MANAGER USER AUTHENTICATION" style="text;html=1;align=center;verticalAlign=middle;whiteSpace=wrap;rounded=0;" vertex="1" parent="1">
          <mxGeometry x="415" y="450" width="160" height="30" as="geometry" />
        </mxCell>
        <mxCell id="47_pGREQ6rvNZp8R7Rz3-27" value="" style="endArrow=classic;html=1;rounded=0;exitX=0;exitY=0;exitDx=70;exitDy=80;exitPerimeter=0;entryX=0;entryY=0.5;entryDx=0;entryDy=0;strokeWidth=2;" edge="1" parent="1" source="EqE0YKUDqJqxegZ7C9gL-4" target="EqE0YKUDqJqxegZ7C9gL-1">
          <mxGeometry width="50" height="50" relative="1" as="geometry">
            <mxPoint x="245" y="530" as="sourcePoint" />
            <mxPoint x="185" y="660" as="targetPoint" />
            <Array as="points">
              <mxPoint x="185" y="650" />
            </Array>
          </mxGeometry>
        </mxCell>
        <mxCell id="47_pGREQ6rvNZp8R7Rz3-28" value="" style="endArrow=classic;html=1;rounded=0;entryX=0.432;entryY=1.009;entryDx=0;entryDy=0;entryPerimeter=0;strokeWidth=2;" edge="1" parent="1" target="EqE0YKUDqJqxegZ7C9gL-4">
          <mxGeometry width="50" height="50" relative="1" as="geometry">
            <mxPoint x="355" y="690" as="sourcePoint" />
            <mxPoint x="155" y="650" as="targetPoint" />
            <Array as="points">
              <mxPoint x="165" y="690" />
            </Array>
          </mxGeometry>
        </mxCell>
        <mxCell id="47_pGREQ6rvNZp8R7Rz3-29" value="" style="endArrow=classic;html=1;rounded=0;exitX=0;exitY=0;exitDx=70;exitDy=80;exitPerimeter=0;entryX=1;entryY=0.5;entryDx=0;entryDy=0;strokeWidth=2;" edge="1" parent="1" source="EqE0YKUDqJqxegZ7C9gL-5" target="EqE0YKUDqJqxegZ7C9gL-1">
          <mxGeometry width="50" height="50" relative="1" as="geometry">
            <mxPoint x="245" y="540" as="sourcePoint" />
            <mxPoint x="295" y="490" as="targetPoint" />
            <Array as="points">
              <mxPoint x="665" y="650" />
            </Array>
          </mxGeometry>
        </mxCell>
        <mxCell id="47_pGREQ6rvNZp8R7Rz3-30" value="" style="endArrow=classic;html=1;rounded=0;exitX=1;exitY=0.75;exitDx=0;exitDy=0;strokeWidth=2;" edge="1" parent="1">
          <mxGeometry width="50" height="50" relative="1" as="geometry">
            <mxPoint x="475" y="686.96" as="sourcePoint" />
            <mxPoint x="685" y="400" as="targetPoint" />
            <Array as="points">
              <mxPoint x="685" y="686.96" />
            </Array>
          </mxGeometry>
        </mxCell>
        <mxCell id="47_pGREQ6rvNZp8R7Rz3-31" value="" style="endArrow=classic;html=1;rounded=0;entryX=0.25;entryY=1;entryDx=0;entryDy=0;strokeWidth=2;" edge="1" parent="1" target="EqE0YKUDqJqxegZ7C9gL-1">
          <mxGeometry width="50" height="50" relative="1" as="geometry">
            <mxPoint x="195" y="820" as="sourcePoint" />
            <mxPoint x="425" y="900" as="targetPoint" />
            <Array as="points">
              <mxPoint x="195" y="880" />
              <mxPoint x="385" y="880" />
            </Array>
          </mxGeometry>
        </mxCell>
        <mxCell id="47_pGREQ6rvNZp8R7Rz3-32" value="CSV RECORDS" style="text;html=1;align=center;verticalAlign=middle;whiteSpace=wrap;rounded=0;" vertex="1" parent="1">
          <mxGeometry x="235" y="880" width="100" height="30" as="geometry" />
        </mxCell>
        <mxCell id="47_pGREQ6rvNZp8R7Rz3-33" value="" style="endArrow=classic;html=1;rounded=0;exitX=0.75;exitY=1;exitDx=0;exitDy=0;entryX=0;entryY=0;entryDx=70;entryDy=80;entryPerimeter=0;strokeWidth=2;" edge="1" parent="1" source="EqE0YKUDqJqxegZ7C9gL-1" target="47_pGREQ6rvNZp8R7Rz3-19">
          <mxGeometry width="50" height="50" relative="1" as="geometry">
            <mxPoint x="455" y="820" as="sourcePoint" />
            <mxPoint x="645" y="940" as="targetPoint" />
            <Array as="points">
              <mxPoint x="445" y="880" />
              <mxPoint x="660" y="880" />
            </Array>
          </mxGeometry>
        </mxCell>
        <mxCell id="47_pGREQ6rvNZp8R7Rz3-34" value="NIGHTLY DB DATA DUMPS" style="text;html=1;align=center;verticalAlign=middle;whiteSpace=wrap;rounded=0;" vertex="1" parent="1">
          <mxGeometry x="475" y="880" width="165" height="30" as="geometry" />
        </mxCell>
        <mxCell id="47_pGREQ6rvNZp8R7Rz3-35" value="" style="endArrow=classic;html=1;rounded=0;entryX=0.5;entryY=0;entryDx=0;entryDy=0;strokeWidth=2;" edge="1" parent="1" target="EqE0YKUDqJqxegZ7C9gL-1">
          <mxGeometry width="50" height="50" relative="1" as="geometry">
            <mxPoint x="414.83" y="410" as="sourcePoint" />
            <mxPoint x="414.83" y="560" as="targetPoint" />
          </mxGeometry>
        </mxCell>
      </root>
    </mxGraphModel>
  </diagram>
</mxfile>
